<svg id="line" height="512" viewBox="0 0 64 64" width="512" xmlns="http://www.w3.org/2000/svg"><path d="m59.5 32h-15v-18a1 1 0 0 0 -1.88-.48l-16 29a1 1 0 0 0 .88 1.48h15v18a1 1 0 0 0 1.87.48l16-29a1 1 0 0 0 -.87-1.48z" fill="#c4a2fc"/><g fill="#151a6a"><path d="m32.5 7h-5v-3a3 3 0 0 0 -3-3h-10a3 3 0 0 0 -3 3v3h-5a3 3 0 0 0 -3 3v38a3 3 0 0 0 3 3h26a3 3 0 0 0 3-3v-38a3 3 0 0 0 -3-3zm-19-3a1 1 0 0 1 1-1h10a1 1 0 0 1 1 1v3h-12zm20 44a1 1 0 0 1 -1 1h-26a1 1 0 0 1 -1-1v-38a1 1 0 0 1 1-1h26a1 1 0 0 1 1 1z"/><path d="m23.5 16h-3v-3a1 1 0 0 0 -2 0v3h-3a1 1 0 0 0 0 2h3v3a1 1 0 0 0 2 0v-3h3a1 1 0 0 0 0-2z"/><path d="m23.5 44h-8a1 1 0 0 0 0 2h8a1 1 0 0 0 0-2z"/></g></svg>