<svg id="Capa_1" enable-background="new 0 0 509.515 509.515" height="512" viewBox="0 0 509.515 509.515" width="512" xmlns="http://www.w3.org/2000/svg"><g><g><g><g><path d="m61.055 7.5h345.473v338.303h-345.473z" fill="#e2fc85"/></g><g><path d="m61.055 7.5h23v338.303h-23z" fill="#8edf78"/></g><g><path d="m24.046 502.015v-372.467l77.015-77.021h260.977v449.488z" fill="#fff"/></g><g><path d="m46.546 479.765v-372.467l54.767-54.771h-.252l-77.015 77.021v372.467h337.992v-22.25z" fill="#cfdbfa"/></g><g><path d="m317.033 364.413c0 57.288 45 90.897 45 90.897s45-32.102 45-90.897-45-90.897-45-90.897-45 33.61-45 90.897z" fill="#8edf78"/></g><g><path d="m338.033 370.417c0-42.528 24.796-72.001 37.574-84.368-7.596-8.264-13.574-12.532-13.574-12.532s-45 33.609-45 90.897 45 90.897 45 90.897 3.122-2.229 7.72-6.582c-13.273-14.66-31.72-41.632-31.72-78.312z" fill="#39c17b"/></g><g><path d="m271.812 424.266c40.509 40.509 96.094 32.454 96.094 32.454s9.12-54.519-32.454-96.094-96.094-32.454-96.094-32.454-8.055 55.585 32.454 96.094z" fill="#e2fc85"/></g><g><path d="m287.013 409.065c-27.739-27.739-32.705-62.543-33.08-81.732-8.973-.095-14.575.84-14.575.84s-8.055 55.585 32.454 96.094 96.094 32.454 96.094 32.454.934-5.602.84-14.575c-19.19-.376-53.994-5.343-81.733-33.081z" fill="#8edf78"/></g><g><path d="m388.614 360.43c-40.509 40.509-32.454 96.094-32.454 96.094s54.519 9.12 96.094-32.454 32.454-96.094 32.454-96.094-55.585-8.055-96.094 32.454z" fill="#39c17b"/></g><g><path d="m484.707 327.976s-5.612-.811-14.562-.622c-.354 19.21-5.495 52.773-33.28 80.559-28.152 28.152-62.234 33.057-81.31 33.291-.253 9.392.604 15.319.604 15.319s54.519 9.12 96.094-32.454 32.454-96.093 32.454-96.093z" fill="#31a469"/></g><g><path d="m434.772 362.098h15v15h-15z" fill="#fff" transform="matrix(.707 -.707 .707 .707 -131.805 421.013)"/></g><g><path d="m413.323 383.547h15v15h-15z" fill="#fff" transform="matrix(.707 -.707 .707 .707 -153.255 412.128)"/></g><g><path d="m274.304 362.098h15v15h-15z" fill="#fff" transform="matrix(.707 -.707 .707 .707 -178.81 307.539)"/></g><g><path d="m295.752 383.547h15v15h-15z" fill="#fff" transform="matrix(.707 -.707 .707 .707 -187.69 328.956)"/></g><g><path d="m354.538 325.219h15v15h-15z" fill="#fff"/></g><g><path d="m24.046 134.542h81.017v-82.015z" fill="#cfdbfa"/></g></g></g><g><path d="m491.207 320.521c-27.513-3.986-56.16.575-80.508 13.576-7.441-28.231-25.225-53.255-48.56-70.683-23.901 17.051-41.633 42.295-48.913 70.745-24.213-12.895-52.742-17.639-80.358-13.637-4.569 27.312-.257 55.856 12.958 80.336 21.4 39.642 63.866 63.238 108.5 63.238h15.421c44.635-.001 87.1-23.595 108.5-63.238 13.216-24.481 17.529-53.025 12.96-80.337zm-142.908 128.793c-20.978-1.006-42.479-8.93-58.719-20.717-29.754-21.595-45.421-58.089-43.355-94.476 36.374-1.628 73.257 13.423 94.703 43.524l12.217-8.703c-7.419-10.413-16.401-19.236-26.455-26.44 6.514-31.397 26.35-52.082 35.275-60.033 8.889 8.121 28.644 29.091 35.309 59.976-4.928 3.551-9.601 7.505-13.96 11.864-24.967 24.968-36.69 60.218-35.015 95.005zm98.656-31.366c-19.406 19.365-46.197 30.054-73.427 31l36.924-36.924-10.607-10.606-36.683 36.682c.88-18.431 6.42-48.846 30.761-73.186 29.907-29.908 69.314-31.386 83.928-30.776 1.732 30.648-9.038 61.999-30.896 83.81z"/><path d="m354.538 494.515h-322.992v-29.999h-15v44.999h352.992v-30h-15z"/><path d="m16.546 434.515h15v15h-15z"/><path d="m31.546 142.042h81.018v-82.015h241.975v187.493h15v-202.493h-271.584l-81.409 81.415v293.074h15zm5.612-15 60.406-60.41v60.41z"/><path d="m399.028 284.515h15v-284.515h-45.491v15h30.491z"/><path d="m338.537 0h16.002v15h-16.002z"/><path d="m68.555 15h254.982v-15h-269.982v59.515h15z"/><path d="m46.537 164.515h15v15h-15z"/><path d="m46.537 194.515h15v15h-15z"/></g></g></svg>